<?xml version="1.0" encoding="utf-8"?>
<!-- Generator: Adobe Illustrator 21.0.2, SVG Export Plug-In . SVG Version: 6.00 Build 0)  -->
<svg version="1.1" id="Calque_1" xmlns="http://www.w3.org/2000/svg" xmlns:xlink="http://www.w3.org/1999/xlink" x="0px" y="0px"
	 viewBox="0 0 326.5 63" style="enable-background:new 0 0 326.5 63;" xml:space="preserve">
<style type="text/css">
	.st0{fill:#FFFFFF;}
</style>
<path class="st0" d="M103.9,2.3c0.2,0.2,0.3,0.5,0.3,0.8v26c0,0.3-0.1,0.6-0.3,0.8c-0.2,0.2-0.4,0.3-0.8,0.3c-0.3,0-0.6-0.1-0.8-0.3
	c-0.2-0.2-0.3-0.5-0.3-0.8V7L91.1,29.3c-0.2,0.3-0.5,0.5-0.9,0.5c-0.4,0-0.8-0.2-1-0.7L78.2,7.3v21.7c0,0.3-0.1,0.6-0.3,0.8
	c-0.2,0.2-0.5,0.3-0.8,0.3c-0.3,0-0.6-0.1-0.8-0.3c-0.2-0.2-0.3-0.5-0.3-0.8v-26c0-0.3,0.1-0.6,0.3-0.8C76.6,2.1,76.8,2,77.1,2
	c0.5,0,0.8,0.2,1,0.5l12.1,23.9l12-23.9c0.2-0.4,0.5-0.5,1-0.5C103.4,2,103.7,2.1,103.9,2.3z"/>
<path class="st0" d="M123,11.5c1.4,0.8,2.5,2,3.2,3.4c0.8,1.5,1.2,3.1,1.2,5c0,0.3-0.1,0.6-0.3,0.7c-0.2,0.2-0.4,0.3-0.8,0.3h-15.1
	c0.1,1.4,0.4,2.7,1.1,3.8c0.7,1.1,1.6,2,2.7,2.6c1.1,0.6,2.4,0.9,3.8,0.9c0.9,0,1.9-0.2,2.8-0.5c0.9-0.3,1.7-0.8,2.2-1.3
	c0.2-0.2,0.5-0.3,0.8-0.3c0.3,0,0.5,0.1,0.6,0.2c0.3,0.2,0.4,0.5,0.4,0.8c0,0.2-0.1,0.5-0.3,0.7c-0.8,0.7-1.8,1.3-3,1.7
	c-1.2,0.5-2.4,0.7-3.5,0.7c-1.9,0-3.6-0.4-5.1-1.3c-1.5-0.9-2.6-2-3.5-3.6c-0.8-1.5-1.3-3.2-1.3-5.2c0-1.9,0.4-3.7,1.2-5.2
	c0.8-1.5,1.9-2.7,3.3-3.6c1.4-0.9,3-1.3,4.8-1.3C120,10.3,121.6,10.7,123,11.5z M113.5,14.2c-1.3,1.2-2,2.9-2.3,4.9h14
	c-0.2-2-0.9-3.7-2.2-4.9c-1.3-1.2-2.9-1.9-4.8-1.9C116.4,12.3,114.8,12.9,113.5,14.2z"/>
<path class="st0" d="M140.8,28.3c0.2,0.2,0.3,0.5,0.3,0.8c0,0.3-0.1,0.6-0.3,0.8c-0.2,0.2-0.5,0.3-0.8,0.3h-0.8
	c-1.3,0-2.5-0.3-3.5-0.9c-1-0.6-1.8-1.4-2.4-2.5c-0.6-1-0.9-2.2-0.9-3.5V13.1h-2.8c-0.3,0-0.5-0.1-0.7-0.3c-0.2-0.2-0.3-0.4-0.3-0.7
	s0.1-0.5,0.3-0.7c0.2-0.2,0.4-0.3,0.7-0.3h2.8V5.3c0-0.3,0.1-0.6,0.3-0.8c0.2-0.2,0.5-0.3,0.8-0.3c0.3,0,0.6,0.1,0.8,0.3
	c0.2,0.2,0.3,0.5,0.3,0.8v5.9h4.8c0.3,0,0.5,0.1,0.7,0.3c0.2,0.2,0.3,0.4,0.3,0.7s-0.1,0.5-0.3,0.7c-0.2,0.2-0.4,0.3-0.7,0.3h-4.8
	v10.1c0,1.4,0.4,2.5,1.3,3.4c0.9,0.9,2,1.3,3.3,1.3h0.8C140.3,27.9,140.6,28,140.8,28.3z"/>
<path class="st0" d="M155.8,11.4c0,0.1,0,0.2,0,0.3c-0.1,0.3-0.2,0.5-0.3,0.6c-0.2,0.1-0.4,0.2-0.6,0.2c-0.2,0-0.5,0-0.8-0.1
	c-0.3,0-0.6-0.1-0.9-0.1c-1.2,0-2.3,0.3-3.2,0.8s-1.7,1.2-2.2,2.1c-0.5,0.9-0.8,1.9-0.8,3v10.9c0,0.3-0.1,0.6-0.3,0.8
	c-0.2,0.2-0.5,0.3-0.8,0.3c-0.3,0-0.6-0.1-0.8-0.3c-0.2-0.2-0.3-0.5-0.3-0.8V11.5c0-0.3,0.1-0.6,0.3-0.8c0.2-0.2,0.5-0.3,0.8-0.3
	c0.3,0,0.6,0.1,0.8,0.3c0.2,0.2,0.3,0.5,0.3,0.8v2.2c0.7-1.1,1.6-2,2.7-2.6c1.1-0.6,2.3-0.9,3.5-0.9
	C154.9,10.2,155.8,10.6,155.8,11.4z"/>
<path class="st0" d="M162,29c-1.5-0.9-2.7-2.1-3.6-3.6c-0.9-1.5-1.3-3.2-1.3-5.1c0-1.9,0.4-3.6,1.3-5.1c0.9-1.5,2.1-2.7,3.6-3.6
	c1.5-0.9,3.3-1.3,5.1-1.3c1.9,0,3.6,0.4,5.1,1.3c1.5,0.9,2.7,2.1,3.6,3.6c0.9,1.5,1.3,3.3,1.3,5.1c0,1.9-0.4,3.6-1.3,5.1
	c-0.9,1.5-2.1,2.7-3.6,3.6c-1.5,0.9-3.2,1.3-5.1,1.3C165.3,30.4,163.5,29.9,162,29z M171.2,27.3c1.2-0.7,2.1-1.7,2.8-2.9
	s1-2.6,1-4.1c0-1.5-0.3-2.9-1-4.1c-0.7-1.2-1.6-2.2-2.8-2.9c-1.2-0.7-2.5-1.1-4-1.1c-1.5,0-2.8,0.4-4,1.1c-1.2,0.7-2.1,1.7-2.8,2.9
	c-0.7,1.2-1,2.6-1,4.1c0,1.5,0.3,2.9,1,4.1c0.7,1.2,1.6,2.2,2.8,2.9c1.2,0.7,2.5,1,4,1C168.6,28.3,170,28,171.2,27.3z"/>
<path class="st0" d="M192.2,29.6c-0.4-0.4-0.5-0.8-0.5-1.3V3.9c0-0.6,0.2-1,0.5-1.4c0.4-0.3,0.8-0.5,1.3-0.5h8.6c1.6,0,3,0.3,4.3,1
	c1.2,0.6,2.2,1.5,2.9,2.7c0.7,1.1,1.1,2.4,1.1,3.9c0,1.2-0.3,2.2-1,3.2c-0.6,0.9-1.5,1.7-2.6,2.3c1.6,0.4,2.9,1.2,3.9,2.3
	c0.9,1.2,1.4,2.6,1.4,4.4c0,1.6-0.4,3.1-1.2,4.4c-0.8,1.3-1.9,2.3-3.3,3c-1.4,0.7-3,1.1-4.8,1.1h-9.4
	C193.1,30.1,192.6,30,192.2,29.6z M202.2,13.6c1.4,0,2.5-0.3,3.4-1c0.9-0.7,1.3-1.7,1.3-3c0-1.3-0.4-2.3-1.3-3c-0.9-0.7-2-1-3.4-1
	h-6.7v8.1H202.2z M202.9,26.7c1.7,0,3-0.4,4.1-1.3c1-0.9,1.5-2.1,1.5-3.7c0-1.5-0.5-2.6-1.5-3.4c-1-0.8-2.4-1.2-4.1-1.2h-7.5v9.6
	H202.9z"/>
<path class="st0" d="M220.3,29c-1.5-0.9-2.7-2-3.5-3.5c-0.8-1.5-1.3-3.2-1.3-5.1c0-1.9,0.4-3.7,1.3-5.2c0.8-1.5,2-2.7,3.5-3.5
	c1.5-0.9,3.2-1.3,5.1-1.3c1.9,0,3.6,0.4,5.1,1.3c1.5,0.9,2.7,2,3.5,3.5c0.9,1.5,1.3,3.2,1.3,5.2c0,1.9-0.4,3.6-1.3,5.1
	c-0.8,1.5-2,2.7-3.5,3.5s-3.2,1.3-5.1,1.3C223.5,30.3,221.8,29.9,220.3,29z M228.7,26.2c1-0.6,1.7-1.4,2.3-2.4
	c0.5-1,0.8-2.2,0.8-3.5s-0.3-2.5-0.8-3.5c-0.5-1-1.3-1.8-2.3-2.4c-1-0.6-2.1-0.9-3.3-0.9s-2.3,0.3-3.3,0.9s-1.7,1.4-2.3,2.4
	c-0.6,1-0.8,2.2-0.8,3.5s0.3,2.5,0.8,3.5c0.6,1,1.3,1.8,2.3,2.4s2.1,0.9,3.3,0.9S227.7,26.8,228.7,26.2z"/>
<path class="st0" d="M260.8,10.8c0.3,0.3,0.4,0.6,0.4,1.1c0,0.4-0.1,0.7-0.2,1l-5.3,16c-0.1,0.3-0.3,0.6-0.6,0.8
	c-0.3,0.2-0.7,0.3-1,0.3c-0.4,0-0.8-0.1-1.1-0.3c-0.3-0.2-0.5-0.5-0.6-0.8l-3.5-13.1L245.1,29c-0.1,0.3-0.3,0.6-0.7,0.8
	c-0.3,0.2-0.7,0.3-1.1,0.3c-0.4,0-0.7-0.1-1.1-0.3c-0.3-0.2-0.5-0.5-0.7-0.8l-5.3-16c-0.1-0.3-0.1-0.6-0.1-1c0-1,0.5-1.5,1.5-1.5
	c0.5,0,0.8,0.1,1.1,0.4c0.3,0.3,0.5,0.7,0.7,1.3l3.9,12.1l3.7-12.4c0.1-0.4,0.3-0.7,0.6-1c0.3-0.3,0.7-0.4,1.2-0.4
	c0.5,0,0.8,0.1,1.1,0.4c0.3,0.3,0.5,0.6,0.6,1l3.2,12.7l4-12.4c0.3-1.1,1-1.7,1.9-1.7C260.2,10.4,260.6,10.6,260.8,10.8z"/>
<path class="st0" d="M266,29.3c-0.8-0.6-1.5-1.4-1.9-2.4c-0.5-1-0.7-2.2-0.7-3.4V3.8c0-0.5,0.2-1,0.5-1.3c0.3-0.3,0.8-0.5,1.3-0.5
	s1,0.2,1.3,0.5c0.3,0.3,0.5,0.8,0.5,1.3v19.7c0,0.9,0.2,1.6,0.5,2.2c0.3,0.6,0.8,0.9,1.3,0.9h0.9c0.5,0,0.9,0.2,1.2,0.5
	c0.3,0.3,0.4,0.8,0.4,1.3s-0.2,1-0.7,1.3c-0.5,0.3-1,0.5-1.8,0.5h-0.1C267.8,30.1,266.8,29.9,266,29.3z"/>
<path class="st0" d="M274.5,6.5c-0.5-0.5-0.7-1-0.7-1.7s0.2-1.2,0.7-1.7c0.5-0.5,1-0.7,1.7-0.7s1.2,0.2,1.7,0.7
	c0.5,0.5,0.7,1,0.7,1.7s-0.2,1.2-0.7,1.7c-0.5,0.5-1,0.7-1.7,0.7S275,7,274.5,6.5z M274.9,29.6c-0.3-0.3-0.5-0.8-0.5-1.3v-16
	c0-0.6,0.2-1,0.5-1.3c0.3-0.3,0.8-0.5,1.3-0.5c0.6,0,1,0.2,1.3,0.5c0.3,0.3,0.5,0.8,0.5,1.3v16c0,0.5-0.2,1-0.5,1.3
	c-0.3,0.3-0.8,0.5-1.3,0.5C275.7,30.1,275.2,30,274.9,29.6z"/>
<path class="st0" d="M298.2,11.3c1.3,0.7,2.4,1.8,3.1,3.1c0.7,1.4,1.1,3,1.1,5v8.9c0,0.5-0.2,1-0.5,1.3c-0.3,0.3-0.8,0.5-1.3,0.5
	c-0.5,0-1-0.2-1.3-0.5c-0.3-0.3-0.5-0.8-0.5-1.3v-8.9c0-1.9-0.5-3.4-1.6-4.4c-1-1-2.4-1.5-4.2-1.5c-1,0-1.9,0.2-2.8,0.6
	c-0.8,0.4-1.5,1-1.9,1.7c-0.5,0.7-0.7,1.5-0.7,2.3v10.2c0,0.5-0.2,1-0.5,1.3c-0.3,0.3-0.8,0.5-1.3,0.5c-0.5,0-1-0.2-1.3-0.5
	c-0.3-0.3-0.5-0.8-0.5-1.3V12.3c0-0.6,0.2-1,0.5-1.3c0.3-0.3,0.8-0.5,1.3-0.5c0.6,0,1,0.2,1.3,0.5c0.3,0.3,0.5,0.8,0.5,1.3v0.4
	c0.8-0.8,1.7-1.4,2.7-1.8c1.1-0.4,2.2-0.6,3.4-0.6C295.4,10.3,296.9,10.6,298.2,11.3z"/>
<path class="st0" d="M321.6,11.6c1.5,0.9,2.7,2,3.5,3.5c0.9,1.5,1.3,3.2,1.3,5.2v7.8c0,1.9-0.4,3.6-1.3,5.2c-0.8,1.6-2,2.8-3.5,3.7
	c-1.5,0.9-3.2,1.4-5.2,1.4c-1.7,0-3.3-0.3-4.8-1c-1.5-0.7-2.7-1.7-3.7-2.9c-0.3-0.3-0.4-0.7-0.4-1c0-0.5,0.3-0.9,0.8-1.3
	c0.3-0.2,0.7-0.3,1-0.3c0.6,0,1.1,0.3,1.5,0.8c0.6,0.8,1.5,1.5,2.4,1.9c1,0.4,2.1,0.7,3.3,0.7c1.2,0,2.2-0.3,3.2-0.8
	c1-0.6,1.7-1.4,2.3-2.5c0.6-1.1,0.9-2.4,0.9-3.9v-1.8c-0.7,1.3-1.7,2.4-3,3.1c-1.2,0.7-2.6,1.1-4.1,1.1c-1.8,0-3.4-0.4-4.8-1.3
	c-1.4-0.9-2.5-2-3.3-3.5c-0.8-1.5-1.2-3.2-1.2-5.1c0-1.9,0.4-3.7,1.3-5.2c0.8-1.5,2-2.7,3.5-3.5c1.5-0.9,3.2-1.3,5.1-1.3
	C318.4,10.3,320.1,10.7,321.6,11.6z M319.8,26.2c1-0.6,1.7-1.4,2.3-2.4c0.5-1,0.8-2.2,0.8-3.5s-0.3-2.5-0.8-3.5
	c-0.5-1-1.3-1.8-2.3-2.4c-1-0.6-2.1-0.9-3.3-0.9s-2.3,0.3-3.3,0.9s-1.7,1.4-2.3,2.4c-0.6,1-0.8,2.2-0.8,3.5s0.3,2.5,0.8,3.5
	c0.6,1,1.3,1.8,2.3,2.4s2.1,0.9,3.3,0.9S318.9,26.8,319.8,26.2z"/>
<g>
	<path class="st0" d="M73.6,55.6V44.2h2.9c1,0,1.8,0.3,2.3,0.8c0.5,0.5,0.8,1.2,0.8,2.2c0,0.6-0.1,1.1-0.4,1.5
		c-0.3,0.4-0.6,0.7-1.1,0.9c0.6,0.1,1,0.5,1.3,1c0.3,0.5,0.5,1.1,0.5,1.8c0,1-0.3,1.8-0.8,2.3c-0.5,0.6-1.3,0.9-2.3,0.9H73.6z
		 M74.5,49.3h2.1c0.7,0,1.2-0.2,1.6-0.5s0.6-0.9,0.6-1.6c0-0.7-0.2-1.3-0.6-1.6s-0.9-0.5-1.7-0.5h-2V49.3z M74.5,50.1v4.6h2.4
		c0.7,0,1.2-0.2,1.6-0.6c0.4-0.4,0.6-1,0.6-1.7c0-0.7-0.2-1.2-0.5-1.6c-0.4-0.4-0.9-0.6-1.5-0.6H74.5z"/>
	<path class="st0" d="M89.2,51.2c0,1.5-0.3,2.6-1,3.4c-0.6,0.8-1.5,1.2-2.7,1.2c-1.2,0-2.1-0.4-2.7-1.2c-0.7-0.8-1-1.9-1-3.4v-2.5
		c0-1.5,0.3-2.6,1-3.4c0.7-0.8,1.6-1.2,2.7-1.2c1.2,0,2.1,0.4,2.7,1.2c0.6,0.8,1,2,1,3.4V51.2z M88.3,48.7c0-1.2-0.2-2.2-0.7-2.8
		c-0.5-0.6-1.2-0.9-2.1-0.9c-0.9,0-1.5,0.3-2,0.9c-0.5,0.6-0.7,1.5-0.8,2.7v2.5c0,1.2,0.2,2.2,0.7,2.8c0.5,0.6,1.2,0.9,2.1,0.9
		c0.9,0,1.6-0.3,2.1-0.9c0.5-0.6,0.7-1.6,0.7-2.8V48.7z"/>
	<path class="st0" d="M93.4,52.5l0.3,1.7l0.3-1.6l2-8.4h0.8l2,8.4l0.3,1.6l0.3-1.7l1.7-8.3h0.9l-2.4,11.4h-0.8l-2.1-8.9l-0.2-1.1
		l-0.2,1.1l-2.2,8.9h-0.9l-2.4-11.4h0.9L93.4,52.5z"/>
	<path class="st0" d="M104.8,54.8h4.7v0.8h-5.6V44.2h0.9V54.8z"/>
	<path class="st0" d="M112.4,55.6h-0.9V44.2h0.9V55.6z"/>
	<path class="st0" d="M122.4,55.6h-0.9l-5.4-9.7v9.7h-0.9V44.2h0.9l5.4,9.7v-9.7h0.9V55.6z"/>
	<path class="st0" d="M132.1,54.3c-0.4,0.5-0.9,0.9-1.4,1.1s-1.2,0.4-1.9,0.4c-1.2,0-2.1-0.4-2.8-1.2c-0.7-0.8-1-1.9-1-3.2v-2.8
		c0-1.5,0.3-2.6,0.9-3.3s1.5-1.2,2.7-1.2c1,0,1.9,0.3,2.5,0.9s0.9,1.4,1,2.5h-0.9c-0.1-0.9-0.4-1.5-0.8-1.9c-0.4-0.4-1-0.6-1.8-0.6
		c-0.9,0-1.6,0.3-2.1,0.9s-0.7,1.5-0.7,2.7v2.6c0,1.2,0.3,2.1,0.8,2.8s1.2,1,2.1,1c1,0,1.8-0.3,2.4-0.9v-3h-2.5v-0.8h3.4V54.3z"/>
	<path class="st0" d="M139.1,54.8h4.7v0.8h-5.6V44.2h0.9V54.8z"/>
	<path class="st0" d="M146.7,55.6h-0.9V44.2h0.9V55.6z"/>
	<path class="st0" d="M150.4,54.8h4.7v0.8h-5.6V44.2h0.9V54.8z"/>
	<path class="st0" d="M157.9,54.8h4.7v0.8H157V44.2h0.9V54.8z"/>
	<path class="st0" d="M165.3,54.8h4.7v0.8h-5.6V44.2h0.9V54.8z"/>
	<path class="st0" d="M177.1,50.2h-4.4v4.6h5.1v0.8h-6V44.2h5.9v0.8h-5v4.3h4.4V50.2z"/>
</g>
<path class="st0" d="M60,31.4c0-16-13-29.1-29.1-29.1c-16,0-29.1,13-29.1,29.1c0,16,13,29.1,29.1,29.1c2.2,0,4.4-0.3,6.5-0.7
	c-0.4-0.8-0.7-1.7-0.7-2.6c0-3.1,2.5-5.6,5.6-5.6c2.4,0,4.5,1.5,5.3,3.7C55.1,49.9,60,41.2,60,31.4z M29.3,51.5
	c-3.1,0-5.6-2.5-5.6-5.6s2.5-5.6,5.6-5.6s5.6,2.5,5.6,5.6S32.4,51.5,29.3,51.5z M45.4,47.7c-3.1,0-5.6-2.5-5.6-5.6s2.5-5.6,5.6-5.6
	S51,39,51,42.1S48.5,47.7,45.4,47.7z"/>
<path class="st0" d="M30.9,61.2c-16.4,0-29.8-13.4-29.8-29.8C1.1,15,14.5,1.6,30.9,1.6c16.4,0,29.8,13.4,29.8,29.8
	C60.7,47.9,47.4,61.2,30.9,61.2z M30.9,3.1C15.3,3.1,2.6,15.8,2.6,31.4s12.7,28.3,28.3,28.3S59.3,47,59.3,31.4S46.6,3.1,30.9,3.1z"
	/>
</svg>
