<svg xmlns="http://www.w3.org/2000/svg" width="262" height="79" viewBox="0 0 262 79" fill="none"><path fill-rule="evenodd" clip-rule="evenodd" d="M81.1634 36.3808C80.6871 36.3808 80.2994 35.9917 80.2994 35.5137C80.2994 35.0357 80.6871 34.6467 81.1634 34.6467C81.6397 34.6467 82.0286 35.0357 82.0286 35.5137C82.0286 35.9917 81.6397 36.3808 81.1634 36.3808ZM75.0929 40.5912C74.6166 40.5912 74.2289 40.2023 74.2289 39.7242C74.2289 39.2462 74.6166 38.8572 75.0929 38.8572C75.5691 38.8572 75.9569 39.2462 75.9569 39.7242C75.9569 40.2023 75.5691 40.5912 75.0929 40.5912ZM69.0224 40.8594C68.5461 40.8594 68.1584 40.4705 68.1584 39.9924C68.1584 39.5144 68.5461 39.1255 69.0224 39.1255C69.4986 39.1255 69.8863 39.5144 69.8863 39.9924C69.8863 40.4705 69.4986 40.8594 69.0224 40.8594ZM56.94 49.0876C56.4637 49.0876 56.0748 48.6988 56.0748 48.2207C56.0748 47.7426 56.4637 47.3538 56.94 47.3538C57.4163 47.3538 57.804 47.7426 57.804 48.2207C57.804 48.6988 57.4163 49.0876 56.94 49.0876ZM56.8814 39.7733C56.4039 39.7733 56.0162 39.3843 56.0162 38.9063C56.0162 38.4282 56.4039 38.0393 56.8814 38.0393C57.3576 38.0393 57.7453 38.4282 57.7453 38.9063C57.7453 39.3843 57.3576 39.7733 56.8814 39.7733ZM44.7404 54.0975C44.2629 54.0975 43.8752 53.7085 43.8752 53.2305C43.8752 52.7524 44.2629 52.3635 44.7404 52.3635C45.2166 52.3635 45.6043 52.7524 45.6043 53.2305C45.6043 53.7085 45.2166 54.0975 44.7404 54.0975ZM50.8109 51.1041C50.3334 51.1041 49.9457 50.7152 49.9457 50.2372C49.9457 49.7591 50.3334 49.3701 50.8109 49.3701C51.2871 49.3701 51.6748 49.7591 51.6748 50.2372C51.6748 50.7152 51.2871 51.1041 50.8109 51.1041ZM14.3914 60.272C13.914 60.272 13.5262 59.883 13.5262 59.405C13.5262 58.9269 13.914 58.538 14.3914 58.538C14.8677 58.538 15.2554 58.9269 15.2554 59.405C15.2554 59.883 14.8677 60.272 14.3914 60.272ZM2.24561 47.0277C1.76935 47.0277 1.38164 46.6388 1.38164 46.1608C1.38164 45.6827 1.76935 45.2937 2.24561 45.2937C2.72306 45.2937 3.11077 45.6827 3.11077 46.1608C3.11077 46.6388 2.72306 47.0277 2.24561 47.0277ZM38.6698 59.7838C38.1924 59.7838 37.8047 59.3948 37.8047 58.9168C37.8047 58.4387 38.1924 58.0498 38.6698 58.0498C39.1461 58.0498 39.5338 58.4387 39.5338 58.9168C39.5338 59.3948 39.1461 59.7838 38.6698 59.7838ZM32.5993 77.279C32.1219 77.279 31.7342 76.8902 31.7342 76.4122C31.7342 75.934 32.1219 75.5452 32.5993 75.5452C33.0756 75.5452 33.4633 75.934 33.4633 76.4122C33.4633 76.8902 33.0756 77.279 32.5993 77.279ZM26.475 73.8732C25.9987 73.8732 25.6098 73.4842 25.6098 73.0062C25.6098 72.5282 25.9987 72.1391 26.475 72.1391C26.9512 72.1391 27.339 72.5282 27.339 73.0062C27.339 73.4842 26.9512 73.8732 26.475 73.8732ZM26.5276 54.8051C26.0514 54.8051 25.6637 54.4162 25.6637 53.9381C25.6637 53.4601 26.0514 53.0712 26.5276 53.0712C27.0051 53.0712 27.3928 53.4601 27.3928 53.9381C27.3928 54.4162 27.0051 54.8051 26.5276 54.8051ZM20.4571 62.5826C19.9809 62.5826 19.5932 62.1936 19.5932 61.7155C19.5932 61.2375 19.9809 60.8486 20.4571 60.8486C20.9346 60.8486 21.3223 61.2375 21.3223 61.7155C21.3223 62.1936 20.9346 62.5826 20.4571 62.5826ZM8.31612 52.7133C7.83986 52.7133 7.45215 52.3243 7.45215 51.8462C7.45215 51.3682 7.83986 50.9793 8.31612 50.9793C8.79357 50.9793 9.18128 51.3682 9.18128 51.8462C9.18128 52.3243 8.79357 52.7133 8.31612 52.7133ZM81.1634 33.3595C80.2899 33.3595 79.5396 33.8832 79.2045 34.6337H75.2281L63.2092 29.3513L42.0001 29.2972L14.2143 45.5173H4.29663C4.0238 44.6418 3.2089 44.0065 2.24561 44.0065C1.05975 44.0065 0.0976562 44.9709 0.0976562 46.1608C0.0976562 47.3505 1.05975 48.315 2.24561 48.315C3.2089 48.315 4.0238 47.6798 4.29663 46.8046H7.67472V49.79C6.80118 50.0638 6.16816 50.8808 6.16816 51.8462C6.16816 53.0361 7.13025 54.0005 8.31612 54.0005C9.50317 54.0005 10.4641 53.0361 10.4641 51.8462C10.4641 50.8807 9.83105 50.0635 8.95871 49.7899V46.8046H13.75V57.3486C12.8765 57.6222 12.2435 58.4393 12.2435 59.405C12.2435 60.5948 13.2043 61.5593 14.3914 61.5593C15.5773 61.5593 16.5394 60.5948 16.5394 59.405C16.5394 58.4396 15.9063 57.6226 15.0328 57.3487V46.5283L19.8157 43.7364V59.6591C18.9434 59.9328 18.3092 60.7499 18.3092 61.7155C18.3092 62.9053 19.2713 63.8699 20.4571 63.8699C21.6442 63.8699 22.6063 62.9053 22.6063 61.7155C22.6063 60.7501 21.9721 59.9331 21.0997 59.6593V42.987L25.8862 40.1928V51.8819C25.0139 52.1556 24.3797 52.9726 24.3797 53.9381C24.3797 55.1278 25.3418 56.0925 26.5276 56.0925C27.7147 56.0925 28.6768 55.1278 28.6768 53.9381C28.6768 52.9725 28.0426 52.1554 27.1702 51.8818V39.4436L31.9567 36.649V56.0049L25.8324 62.1466V70.9499C24.96 71.2236 24.327 72.0406 24.327 73.0062C24.327 74.1959 25.2879 75.1604 26.475 75.1604C27.6608 75.1604 28.6229 74.1959 28.6229 73.0062C28.6229 72.0406 27.9899 71.2235 27.1164 70.9499V62.6795L31.9567 57.8251V74.3558C31.0844 74.6295 30.4502 75.4467 30.4502 76.4122C30.4502 77.602 31.4123 78.5665 32.5993 78.5665C33.7852 78.5665 34.7473 77.602 34.7473 76.4122C34.7473 75.4467 34.1131 74.6295 33.2407 74.3559V35.8997L38.0273 33.105V56.8604C37.1549 57.134 36.5207 57.9511 36.5207 58.9168C36.5207 60.1066 37.4828 61.0711 38.6698 61.0711C39.8557 61.0711 40.8178 60.1066 40.8178 58.9168C40.8178 57.9514 40.1836 57.1344 39.3112 56.8605V32.3558L42.3459 30.5845H44.0978V51.1743C43.2254 51.4481 42.5924 52.2649 42.5924 53.2305C42.5924 54.4203 43.5533 55.3848 44.7404 55.3848C45.9262 55.3848 46.8883 54.4203 46.8883 53.2305C46.8883 52.2648 46.2541 51.4478 45.3817 51.1742V38.4882L50.1455 43.2639L50.1659 48.1821C49.2947 48.4567 48.6629 49.2728 48.6629 50.2372C48.6629 51.4269 49.6238 52.3914 50.8109 52.3914C51.9967 52.3914 52.9588 51.4269 52.9588 50.2372C52.9588 49.2716 52.3258 48.4546 51.4523 48.1808V42.8214L45.3817 36.6703V30.5845H56.24V36.8499C55.3664 37.1236 54.7334 37.9406 54.7334 38.9063C54.7334 40.0961 55.6943 41.0606 56.8814 41.0606C58.0672 41.0606 59.0293 40.0961 59.0293 38.9063C59.0293 37.9409 58.3963 37.1238 57.5228 36.8501V30.5845H62.3093V41.9251L57.9344 46.3125C57.6376 46.1561 57.299 46.0664 56.94 46.0664C55.7529 46.0664 54.792 47.0309 54.792 48.2207C54.792 49.4104 55.7529 50.3749 56.94 50.3749C58.1259 50.3749 59.088 49.4104 59.088 48.2207C59.088 47.8602 58.9982 47.5212 58.8426 47.2225L63.5933 42.4581V30.9258L68.381 33.0299V37.9362C67.5074 38.2099 66.8744 39.0269 66.8744 39.9924C66.8744 41.1821 67.8365 42.1468 69.0224 42.1468C70.2082 42.1468 71.1703 41.1821 71.1703 39.9924C71.1703 39.0268 70.5373 38.2098 69.6638 37.9362V33.5941L74.4515 35.6982V37.6678C73.5779 37.9415 72.9449 38.7586 72.9449 39.7242C72.9449 40.914 73.907 41.8785 75.0929 41.8785C76.2787 41.8785 77.2408 40.914 77.2408 39.7242C77.2408 38.7587 76.6078 37.9417 75.7343 37.668V35.8766L79.0537 35.9121C79.2404 36.9114 80.1128 37.668 81.1634 37.668C82.3504 37.668 83.3113 36.7035 83.3113 35.5137C83.3113 34.324 82.3504 33.3595 81.1634 33.3595Z" fill="#398BBF"></path><path fill-rule="evenodd" clip-rule="evenodd" d="M51.2786 7.51508C52.6584 7.51508 53.776 6.39361 53.776 5.01004C53.776 3.6266 52.6584 2.50513 51.2786 2.50513C49.8989 2.50513 48.7812 3.6266 48.7812 5.01004C48.7812 6.39361 49.8989 7.51508 51.2786 7.51508Z" fill="#233540"></path><path fill-rule="evenodd" clip-rule="evenodd" d="M41.7044 5.00995C43.0841 5.00995 44.203 3.88848 44.203 2.50503C44.203 1.12159 43.0841 0 41.7044 0C40.3247 0 39.207 1.12159 39.207 2.50503C39.207 3.88848 40.3247 5.00995 41.7044 5.00995Z" fill="#233540"></path><path fill-rule="evenodd" clip-rule="evenodd" d="M32.1302 7.51508C33.5099 7.51508 34.6288 6.39361 34.6288 5.01004C34.6288 3.6266 33.5099 2.50513 32.1302 2.50513C30.7517 2.50513 29.6328 3.6266 29.6328 5.01004C29.6328 6.39361 30.7517 7.51508 32.1302 7.51508Z" fill="#233540"></path><path fill-rule="evenodd" clip-rule="evenodd" d="M14.4582 16.9703C14.9895 16.9703 15.4215 16.5378 15.4215 16.0049C15.4215 15.4699 16.1371 14.874 17.1638 14.874H25.7185C26.2498 14.874 26.6818 14.4416 26.6818 13.9086C26.6818 13.3755 26.2498 12.9431 25.7185 12.9431H17.1638C15.1415 12.9431 13.4961 14.3165 13.4961 16.0049C13.4961 16.5378 13.9269 16.9703 14.4582 16.9703Z" fill="#233540"></path><path fill-rule="evenodd" clip-rule="evenodd" d="M64.0195 19.2421C64.0195 19.7751 64.4503 20.2075 64.9816 20.2075H73.8475C74.8742 20.2075 75.5898 20.8034 75.5898 21.3384C75.5898 21.8713 76.0217 22.3038 76.5531 22.3038C77.0844 22.3038 77.5163 21.8713 77.5163 21.3384C77.5163 19.65 75.871 18.2766 73.8475 18.2766H64.9816C64.4503 18.2766 64.0195 18.709 64.0195 19.2421Z" fill="#233540"></path><path fill-rule="evenodd" clip-rule="evenodd" d="M57.6633 14.891H67.1968C68.2235 14.891 68.9391 15.4868 68.9391 16.0217C68.9391 16.5548 69.3699 16.9873 69.9012 16.9873C70.4325 16.9873 70.8645 16.5548 70.8645 16.0217C70.8645 14.3334 69.2191 12.96 67.1968 12.96H57.6633C57.132 12.96 56.7012 13.3925 56.7012 13.9254C56.7012 14.4585 57.132 14.891 57.6633 14.891Z" fill="#233540"></path><path fill-rule="evenodd" clip-rule="evenodd" d="M24.422 29.1946H5.05696C3.03346 29.1946 1.38809 30.5679 1.38809 32.2562C1.38809 32.7893 1.82008 33.2217 2.35138 33.2217C2.88269 33.2217 3.31347 32.7893 3.31347 32.2562C3.31347 31.7213 4.03025 31.1255 5.05696 31.1255H24.422C25.3829 31.1255 26.1655 31.9093 26.1655 32.8729C26.1655 33.8365 25.3829 34.6204 24.422 34.6204H3.66768C1.64537 34.6204 0 36.2702 0 38.2987C0 40.3269 1.64537 41.9769 3.66768 41.9769H15.1864C15.7177 41.9769 16.1485 41.5445 16.1485 41.0115C16.1485 40.4785 15.7177 40.046 15.1864 40.046H3.66768C2.70678 40.046 1.92538 39.2622 1.92538 38.2987C1.92538 37.335 2.70678 36.5512 3.66768 36.5512H24.422C26.4455 36.5512 28.0909 34.9012 28.0909 32.8729C28.0909 30.8446 26.4455 29.1946 24.422 29.1946Z" fill="#233540"></path><path fill-rule="evenodd" clip-rule="evenodd" d="M29.1142 23.769H7.17158C5.14927 23.769 3.50391 25.1424 3.50391 26.8308C3.50391 27.3637 3.93469 27.7962 4.46599 27.7962C4.9973 27.7962 5.42929 27.3637 5.42929 26.8308C5.42929 26.2958 6.14487 25.7 7.17158 25.7H29.1142C30.0751 25.7 30.8565 26.4837 30.8565 27.4474C30.8565 27.9805 31.2873 28.4128 31.8186 28.4128C32.3511 28.4128 32.7819 27.9805 32.7819 27.4474C32.7819 25.419 31.1365 23.769 29.1142 23.769Z" fill="#233540"></path><path fill-rule="evenodd" clip-rule="evenodd" d="M51.2789 21.6726C50.7476 21.6726 50.3168 22.1051 50.3168 22.6381C50.3168 23.1729 49.6 23.7689 48.5733 23.7689H37.8993C35.8758 23.7689 34.2305 25.4189 34.2305 27.4472C34.2305 27.9803 34.6625 28.4127 35.1938 28.4127C35.7251 28.4127 36.1559 27.9803 36.1559 27.4472C36.1559 26.4836 36.9384 25.6998 37.8993 25.6998H48.5733C50.5968 25.6998 52.2422 24.3264 52.2422 22.6381C52.2422 22.1051 51.8102 21.6726 51.2789 21.6726Z" fill="#233540"></path><path fill-rule="evenodd" clip-rule="evenodd" d="M78.4599 23.769H55.268C54.7367 23.769 54.3047 24.2014 54.3047 24.7345C54.3047 25.2676 54.7367 25.7 55.268 25.7H78.4599C79.4196 25.7 80.201 26.4837 80.201 27.4474C80.201 28.4109 79.4196 29.1948 78.4599 29.1948H72.3894C71.8569 29.1948 71.4261 29.6272 71.4261 30.1603C71.4261 30.6932 71.8569 31.1257 72.3894 31.1257H78.4599C80.481 31.1257 82.1264 29.4758 82.1264 27.4474C82.1264 25.419 80.481 23.769 78.4599 23.769Z" fill="#233540"></path><path fill-rule="evenodd" clip-rule="evenodd" d="M53.3513 15.3494V15.9126C53.3513 17.9409 54.9967 19.5909 57.019 19.5909H58.9264C59.8861 19.5909 60.6687 20.3747 60.6687 21.3383C60.6687 21.8713 61.0995 22.3038 61.6308 22.3038C62.1621 22.3038 62.5941 21.8713 62.5941 21.3383C62.5941 19.31 60.9487 17.66 58.9264 17.66H57.019C56.0581 17.66 55.2767 16.8761 55.2767 15.9126V12.4988C55.2767 10.4705 53.6313 8.82049 51.609 8.82049H50.9485C48.9262 8.82049 47.2808 10.4705 47.2808 12.4988V16.0955C47.2808 16.5317 46.9266 16.8868 46.491 16.8868C46.0567 16.8868 45.7025 16.5317 45.7025 16.0955V9.92432C45.7025 7.89583 44.0571 6.24585 42.0348 6.24585H41.3742C39.3519 6.24585 37.7066 7.89583 37.7066 9.92432V18.6701C37.7066 19.1063 37.3524 19.4614 36.918 19.4614C36.4824 19.4614 36.1282 19.1063 36.1282 18.6701V12.4988C36.1282 10.4705 34.484 8.82049 32.4605 8.82049H31.8C29.7777 8.82049 28.1323 10.4705 28.1323 12.4988V16.6367C28.1323 17.6002 27.3509 18.3841 26.39 18.3841H10.6938C8.67271 18.3841 7.02734 19.7575 7.02734 21.4457C7.02734 21.9788 7.45813 22.4112 7.98944 22.4112C8.52074 22.4112 8.95272 21.9788 8.95272 21.4457C8.95272 20.9109 9.66711 20.315 10.6938 20.315H26.39C28.4123 20.315 30.0577 18.6651 30.0577 16.6367V12.4988C30.0577 11.5352 30.8391 10.7514 31.8 10.7514H32.4605C33.4214 10.7514 34.2028 11.5352 34.2028 12.4988V18.6701C34.2028 20.171 35.421 21.3923 36.918 21.3923C38.415 21.3923 39.632 20.171 39.632 18.6701V9.92432C39.632 8.96066 40.4134 8.17689 41.3742 8.17689H42.0348C42.9957 8.17689 43.7771 8.96066 43.7771 9.92432V16.0955C43.7771 17.5965 44.9953 18.8177 46.491 18.8177C47.988 18.8177 49.2062 17.5965 49.2062 16.0955V12.4988C49.2062 11.5352 49.9876 10.7514 50.9485 10.7514H51.609C52.5699 10.7514 53.3513 11.5352 53.3513 12.4988V15.3494Z" fill="#233540"></path><path fill-rule="evenodd" clip-rule="evenodd" d="M118.089 32.2019C118.089 27.9449 114.616 24.4752 110.383 24.4752C106.152 24.4752 102.706 27.9449 102.706 32.2019C102.706 36.4324 106.152 39.8888 110.383 39.8888C114.616 39.8888 118.089 36.4324 118.089 32.2019ZM99.3125 32.2286C99.3125 26.0898 104.289 21.0723 110.397 21.0723C116.492 21.0723 121.494 26.0898 121.494 32.2286C121.494 38.314 116.492 43.305 110.383 43.305C104.289 43.305 99.3125 38.314 99.3125 32.2286Z" fill="#233540"></path><path fill-rule="evenodd" clip-rule="evenodd" d="M102.826 32.0699C102.863 31.3602 102.99 30.6506 103.222 29.9417C103.563 28.9044 104.072 27.9863 104.753 27.1869C105.433 26.3874 106.212 25.7509 107.088 25.2772C107.965 24.8038 108.902 24.5122 109.9 24.4023C110.897 24.293 111.887 24.3996 112.87 24.7234C113.851 25.0468 114.715 25.5516 115.463 26.2366C116.211 26.9218 116.797 27.716 117.223 28.6187C117.648 29.5218 117.898 30.4973 117.972 31.5458C117.984 31.7159 117.983 31.9002 117.983 32.0699H102.826ZM110.854 39.606H109.891V37.382C109.257 37.1561 108.812 36.539 108.836 35.8283C108.866 34.9492 109.6 34.2608 110.476 34.2903C111.352 34.3198 112.04 35.0562 112.01 35.9351C111.986 36.6456 111.502 37.2315 110.854 37.4144V39.606ZM121.282 31.3512C121.163 29.8963 120.792 28.5417 120.168 27.2872C119.545 26.0332 118.69 24.9231 117.606 23.9572C116.522 22.9914 115.262 22.2722 113.828 21.7994C112.394 21.3262 110.959 21.1572 109.524 21.2924C108.089 21.4277 106.749 21.8143 105.505 22.4523C104.261 23.0908 103.16 23.96 102.203 25.0603C101.247 26.1603 100.53 27.4391 100.052 28.8963C99.5804 30.3344 99.4058 31.777 99.528 33.2216C99.6502 34.6674 100.023 36.0172 100.647 37.2711C101.271 38.5259 102.12 39.6341 103.195 40.597C104.27 41.5597 105.525 42.277 106.959 42.7499C108.393 43.2227 109.832 43.394 111.277 43.2616C112.721 43.1298 114.066 42.7449 115.311 42.106C116.554 41.4681 117.654 40.6036 118.607 39.5125C119.56 38.4225 120.273 37.1575 120.745 35.7194C121.222 34.2621 121.401 32.8059 121.282 31.3512Z" fill="#233540"></path><path fill-rule="evenodd" clip-rule="evenodd" d="M238.227 22.9879C238.59 22.9879 238.884 23.2836 238.884 23.6472C238.884 24.0107 238.59 24.3063 238.227 24.3063C237.865 24.3063 237.569 24.0107 237.569 23.6472C237.569 23.2836 237.865 22.9879 238.227 22.9879ZM224.279 38.3509C223.916 38.3509 223.622 38.0551 223.622 37.6917C223.622 37.3282 223.916 37.0325 224.279 37.0325C224.641 37.0325 224.936 37.3282 224.936 37.6917C224.936 38.0551 224.641 38.3509 224.279 38.3509ZM239.861 23.6472C239.861 22.7425 239.129 22.0093 238.227 22.0093C237.324 22.0093 236.594 22.7425 236.594 23.6472C236.594 24.2463 236.916 24.7688 237.394 25.0544V41.5998H218.495L219.532 38.8828L224.28 26.6735L226.703 32.9083L228.146 36.8389H225.671C225.384 36.3686 224.869 36.0537 224.279 36.0537C223.377 36.0537 222.645 36.7871 222.645 37.6917C222.645 38.5963 223.377 39.3296 224.279 39.3296C224.869 39.3296 225.384 39.0146 225.671 38.5445H230.857L230.016 36.499L224.279 22.3514L215.757 43.3053H239.095V25.0329C239.554 24.7429 239.861 24.2315 239.861 23.6472Z" fill="#397CB3"></path><path fill-rule="evenodd" clip-rule="evenodd" d="M142.08 21.7396V43.6788H141.92L128.201 29.3063V43.3318H124.835V21.4194H125.007L138.7 35.7651V21.7396H142.08Z" fill="#233540"></path><path fill-rule="evenodd" clip-rule="evenodd" d="M149.24 25.1161V30.6275H157.358V33.9904H149.24V39.9424H158.65V43.3052H145.874V21.793H158.65V25.1161H149.24Z" fill="#233540"></path><path fill-rule="evenodd" clip-rule="evenodd" d="M188.591 36.526C188.591 34.8979 187.208 33.4031 184.772 33.4031L180.461 33.4165V40.0089H184.826C186.755 40.0089 188.591 38.6078 188.591 36.526ZM180.461 25.0759V30.4404L183.122 30.4272C184.785 30.4404 186.01 29.2928 186.01 27.7581C186.01 26.2235 184.679 25.0759 183.163 25.0759H180.461ZM191.878 36.7528C191.878 40.0489 189.39 43.3051 185.131 43.3051H177.107V21.793H182.963C186.662 21.793 189.164 24.4618 189.164 27.3179C189.164 29.6399 187.554 31.1878 186.755 31.1878C189.164 31.1878 191.878 33.4031 191.878 36.7528Z" fill="#233540"></path><path fill-rule="evenodd" clip-rule="evenodd" d="M202.531 32.1756C204.552 32.1888 206.243 30.5475 206.243 28.6257C206.243 26.624 204.527 25.1426 202.531 25.1426H199.151V32.1756H202.531ZM207.573 43.3052L201.799 34.9778H199.163V43.3052H195.797L195.784 21.793H202.45C206.442 21.793 209.716 24.8757 209.716 28.7057C209.716 31.4815 207.933 33.8969 205.471 34.6976L211.712 43.3052H207.573Z" fill="#233540"></path><path fill-rule="evenodd" clip-rule="evenodd" d="M261.151 21.7396V43.6788H260.991L247.271 29.3063V43.3318H243.904V21.4194H244.078L257.77 35.7651V21.7396H261.151Z" fill="#233540"></path><path fill-rule="evenodd" clip-rule="evenodd" d="M131.774 60.4297V61.5457H127.482V54.4075H128.599V60.4297H131.774Z" fill="#398BBF"></path><path fill-rule="evenodd" clip-rule="evenodd" d="M132.667 61.5457H133.784V54.4075H132.667V61.5457Z" fill="#398BBF"></path><path fill-rule="evenodd" clip-rule="evenodd" d="M141.202 54.4075L137.917 61.6917H137.842L134.57 54.4075H135.759L137.878 59.2393L140.006 54.4075H141.202Z" fill="#398BBF"></path><path fill-rule="evenodd" clip-rule="evenodd" d="M143.109 55.5108V57.3386H145.802V58.4546H143.109V60.4297H146.231V61.5457H141.992V54.4075H146.231V55.5108H143.109Z" fill="#398BBF"></path><path fill-rule="evenodd" clip-rule="evenodd" d="M151.158 55.5108V57.3386H153.851V58.4546H151.158V60.4297H154.279V61.5457H150.041V54.4075H154.279V55.5108H151.158Z" fill="#398BBF"></path><path fill-rule="evenodd" clip-rule="evenodd" d="M155.031 60.2922L155.913 59.659C156.232 60.2178 156.823 60.5364 157.507 60.5364C158.307 60.5364 158.911 60.1504 158.911 59.6057C158.911 58.9459 157.976 58.5487 157.146 58.1893C156.311 57.8173 155.384 57.3835 155.384 56.2633C155.384 55.094 156.395 54.2798 157.675 54.2798C158.692 54.2798 159.45 54.7711 159.741 55.5544L158.911 56.1299C158.692 55.6484 158.2 55.3775 157.684 55.3775C157.032 55.3775 156.509 55.7846 156.509 56.29C156.509 56.8473 157.167 57.0466 158.034 57.4186C159.159 57.9142 160.033 58.4588 160.033 59.5846C160.033 60.8509 158.938 61.6651 157.495 61.6651C156.325 61.6651 155.437 61.1162 155.031 60.2922Z" fill="#398BBF"></path><path fill-rule="evenodd" clip-rule="evenodd" d="M160.65 57.9818C160.65 55.9715 162.324 54.2842 164.325 54.2842C165.247 54.2968 166.1 54.6913 166.797 55.3735L166.147 56.2551C165.649 55.7539 164.999 55.4226 164.302 55.4226C163.013 55.4226 161.781 56.5555 161.781 57.986C161.781 59.4248 163.03 60.5366 164.307 60.5366C165.034 60.5366 165.662 60.1731 166.151 59.686L166.797 60.59C166.182 61.1964 165.401 61.6611 164.342 61.6611C162.324 61.6611 160.65 59.9962 160.65 57.9818Z" fill="#398BBF"></path><path fill-rule="evenodd" clip-rule="evenodd" d="M171.734 59.5004L170.484 56.7111L169.23 59.5004H171.734ZM172.167 60.4606H168.798L168.312 61.5457H167.103L170.449 54.2615H170.515L173.862 61.5457H172.653L172.167 60.4606Z" fill="#398BBF"></path><path fill-rule="evenodd" clip-rule="evenodd" d="M178.418 56.7546C178.418 56.0724 177.796 55.5193 177.032 55.5193H175.769V57.9591L177.032 57.9633C177.796 57.9675 178.418 57.4228 178.418 56.7546ZM174.652 54.4075H177.032C178.409 54.4075 179.536 55.4659 179.536 56.763C179.536 58.0349 178.409 59.0709 177.032 59.0709H175.769V61.5457H174.652V54.4075Z" fill="#398BBF"></path><path fill-rule="evenodd" clip-rule="evenodd" d="M181.541 55.5108V57.3386H184.234V58.4546H181.541V60.4297H184.662V61.5457H180.424V54.4075H184.662V55.5108H181.541Z" fill="#398BBF"></path><path fill-rule="evenodd" clip-rule="evenodd" d="M195.232 58.2075C195.232 60.3286 193.697 61.665 191.846 61.665C189.776 61.665 188.133 60.0085 188.133 57.9857C188.133 55.9572 189.785 54.2881 191.807 54.2881C192.703 54.2923 193.728 54.7261 194.398 55.3816L193.775 56.3124C193.22 55.7635 192.469 55.4167 191.793 55.4167C190.496 55.4167 189.268 56.5061 189.268 57.9857C189.268 59.3852 190.377 60.5363 191.895 60.5363C193.117 60.5363 194.037 59.7881 194.037 58.6988V58.6763H191.834V57.6488H195.202C195.22 57.813 195.232 58.0081 195.232 58.2075Z" fill="#398BBF"></path><path fill-rule="evenodd" clip-rule="evenodd" d="M199.657 59.5004L198.409 56.7111L197.154 59.5004H199.657ZM200.09 60.4606H196.722L196.236 61.5457H195.025L198.372 54.2615H198.439L201.786 61.5457H200.575L200.09 60.4606Z" fill="#398BBF"></path><path fill-rule="evenodd" clip-rule="evenodd" d="M209.547 54.2532V61.5458H208.43V57.5872L206.068 61.4265H206.059L203.692 57.5829V61.5458H202.575V54.2532H202.659L206.063 59.443L209.463 54.2532H209.547Z" fill="#398BBF"></path><path fill-rule="evenodd" clip-rule="evenodd" d="M212.034 55.5109V57.3386H214.727V58.4546H212.034V60.4297H215.155V61.5458H210.917V54.4075H215.155V55.5109H212.034Z" fill="#398BBF"></path><path fill-rule="evenodd" clip-rule="evenodd" d="M223.96 60.4295V61.5455H218.627V61.3069C221.554 58.9289 222.746 57.6935 222.746 56.826C222.746 56.0188 222.093 55.4222 221.412 55.4222C220.582 55.4222 219.916 56.0862 219.916 56.9453L218.896 56.6969C218.896 55.3548 220.004 54.302 221.377 54.302C222.773 54.302 223.868 55.4531 223.868 56.7684C223.868 58.0038 222.613 59.3977 221.002 60.4295H223.96Z" fill="#398BBF"></path><path fill-rule="evenodd" clip-rule="evenodd" d="M231.858 57.9771C231.858 56.4849 231.143 55.4265 230.071 55.4265C228.993 55.4265 228.282 56.4849 228.282 57.9771C228.282 59.4637 228.993 60.518 230.071 60.518C231.143 60.518 231.858 59.4637 231.858 57.9771ZM227.169 57.9771C227.169 55.8252 228.345 54.3021 230.075 54.3021C231.805 54.3021 232.981 55.8252 232.981 57.9771C232.981 60.1249 231.805 61.648 230.075 61.648C228.345 61.648 227.169 60.1249 227.169 57.9771Z" fill="#398BBF"></path></svg>